<svg id="Component_23_1" data-name="Component 23 – 1" xmlns="http://www.w3.org/2000/svg" width="752.935" height="336" viewBox="0 0 752.935 336">
  <g id="Path_4" data-name="Path 4" fill="rgba(75,75,75,0.39)">
    <path d="M 723.9353637695313 335.5 L 29.00005149841309 335.5 C 25.15235137939453 335.5 21.42005157470703 334.7464904785156 17.90665054321289 333.260498046875 C 14.5129508972168 331.8251037597656 11.46505165100098 329.7701110839844 8.847451210021973 327.152587890625 C 6.22995138168335 324.5350036621094 4.174951553344727 321.4870910644531 2.739551305770874 318.0934143066406 C 1.253551363945007 314.5799865722656 0.5000513792037964 310.8476867675781 0.5000513792037964 307 L 0.5000513792037964 29 C 0.5000513792037964 25.15229988098145 1.253551363945007 21.42000007629395 2.739551305770874 17.90660095214844 C 4.174951553344727 14.51290035247803 6.22995138168335 11.46500015258789 8.847451210021973 8.847399711608887 C 11.46505165100098 6.229899883270264 14.5129508972168 4.174900054931641 17.90665054321289 2.739500045776367 C 21.42005157470703 1.253499984741211 25.15235137939453 0.5 29.00005149841309 0.5 L 723.9353637695313 0.5 C 727.7830810546875 0.5 731.515380859375 1.253499984741211 735.0286254882813 2.739500045776367 C 738.42236328125 4.174900054931641 741.4703369140625 6.229899883270264 744.0878295898438 8.847399711608887 C 746.7054443359375 11.46500015258789 748.7604370117188 14.51299953460693 750.1958618164063 17.90660095214844 C 751.6818237304688 21.42000007629395 752.4353637695313 25.15229988098145 752.4353637695313 29 L 752.4353637695313 307 C 752.4353637695313 310.8476867675781 751.6818237304688 314.5799865722656 750.1958618164063 318.0934143066406 C 748.7604370117188 321.4869995117188 746.7054443359375 324.5350036621094 744.0878295898438 327.152587890625 C 741.4703369140625 329.7701110839844 738.42236328125 331.8251037597656 735.0286254882813 333.260498046875 C 731.515380859375 334.7464904785156 727.7830810546875 335.5 723.9353637695313 335.5 Z" stroke="none"/>
    <path d="M 28.99993896484375 1 C 25.21954345703125 1 21.552734375 1.740203857421875 18.1014404296875 3.20001220703125 C 14.767333984375 4.610198974609375 11.77276611328125 6.62921142578125 9.200927734375 9.20098876953125 C 6.629150390625 11.77279663085938 4.61016845703125 14.76730346679688 3.199951171875 18.10140991210938 C 1.74017333984375 21.55279541015625 0.99993896484375 25.2196044921875 0.99993896484375 29 L 0.99993896484375 307 C 0.99993896484375 310.7803955078125 1.74017333984375 314.4472045898438 3.199951171875 317.8985900878906 C 4.61016845703125 321.2326965332031 6.629150390625 324.2272033691406 9.200927734375 326.7990112304688 C 11.77276611328125 329.3707885742188 14.767333984375 331.3898010253906 18.1014404296875 332.7999877929688 C 21.552734375 334.2597961425781 25.21954345703125 335 28.99993896484375 335 L 723.9352416992188 335 C 727.7156372070313 335 731.3824462890625 334.2597961425781 734.8338623046875 332.7999877929688 C 738.16796875 331.3898010253906 741.1624755859375 329.3707885742188 743.7342529296875 326.7990112304688 C 746.3060302734375 324.2272033691406 748.3250732421875 321.2326965332031 749.7352294921875 317.8985900878906 C 751.195068359375 314.4472045898438 751.9352416992188 310.7803955078125 751.9352416992188 307 L 751.9352416992188 29 C 751.9352416992188 25.2196044921875 751.195068359375 21.55279541015625 749.7352294921875 18.10140991210938 C 748.3250732421875 14.76730346679688 746.3060302734375 11.77279663085938 743.7342529296875 9.20098876953125 C 741.1624755859375 6.62921142578125 738.16796875 4.610198974609375 734.8338623046875 3.20001220703125 C 731.3824462890625 1.740203857421875 727.7156372070313 1 723.9352416992188 1 L 28.99993896484375 1 M 28.99993896484375 0 L 723.9352416992188 0 C 739.9515380859375 0 752.9352416992188 12.98370361328125 752.9352416992188 29 L 752.9352416992188 307 C 752.9352416992188 323.0162963867188 739.9515380859375 336 723.9352416992188 336 L 28.99993896484375 336 C 12.9837646484375 336 -6.103515625e-05 323.0162963867188 -6.103515625e-05 307 L -6.103515625e-05 29 C -6.103515625e-05 12.98370361328125 12.9837646484375 0 28.99993896484375 0 Z" stroke="none"/>
  </g>
</svg>
